<svg xmlns="http://www.w3.org/2000/svg" xmlns:xlink="http://www.w3.org/1999/xlink" width="1920" zoomAndPan="magnify" viewBox="0 0 1440 809.999993" height="1080" preserveAspectRatio="xMidYMid meet" version="1.0"><defs><clipPath id="5504d51a52"><path d="M 0 651.625 L 1440 651.625 L 1440 810 L 0 810 Z M 0 651.625 " clip-rule="nonzero"/></clipPath><clipPath id="e20323a657"><path d="M 0 465.28125 L 1440 465.28125 L 1440 717.28125 L 0 717.28125 Z M 0 465.28125 " clip-rule="nonzero"/></clipPath></defs><g clip-path="url(#5504d51a52)"><path fill="#c8f1ff" d="M 1459.40625 664.003906 C 1459.40625 657.140625 1453.746094 651.601562 1446.882812 651.796875 C 1335.824219 654.980469 1331.652344 700.453125 1212.546875 700.453125 C 1089.117188 700.453125 1089.117188 651.625 965.6875 651.625 C 842.257812 651.625 842.257812 700.453125 718.828125 700.453125 C 595.398438 700.453125 595.398438 651.625 471.972656 651.625 C 348.546875 651.625 348.546875 700.453125 225.125 700.453125 C 106.015625 700.453125 101.847656 654.980469 -9.210938 651.796875 C -16.070312 651.601562 -21.730469 657.140625 -21.730469 664.003906 L -21.730469 891.695312 C -21.730469 898.4375 -16.265625 903.90625 -9.523438 903.90625 L 1447.195312 903.90625 C 1453.9375 903.90625 1459.40625 898.4375 1459.40625 891.695312 Z M 1459.40625 664.003906 " fill-opacity="1" fill-rule="nonzero"/></g><g clip-path="url(#e20323a657)"><path fill="#c8f1ff" d="M 1459.40625 477.660156 C 1459.40625 470.796875 1453.746094 465.261719 1446.882812 465.457031 C 1335.824219 468.640625 1331.652344 514.109375 1212.546875 514.109375 C 1089.117188 514.109375 1089.117188 465.28125 965.6875 465.28125 C 842.257812 465.28125 842.257812 514.109375 718.828125 514.109375 C 595.398438 514.109375 595.398438 465.28125 471.972656 465.28125 C 348.546875 465.28125 348.546875 514.109375 225.125 514.109375 C 106.015625 514.109375 101.847656 468.640625 -9.210938 465.457031 C -16.070312 465.261719 -21.730469 470.796875 -21.730469 477.660156 L -21.730469 705.355469 C -21.730469 712.097656 -16.265625 717.5625 -9.523438 717.5625 L 1447.195312 717.5625 C 1453.9375 717.5625 1459.40625 712.097656 1459.40625 705.355469 Z M 1459.40625 477.660156 " fill-opacity="1" fill-rule="nonzero"/></g></svg>