<svg xmlns="http://www.w3.org/2000/svg" xmlns:xlink="http://www.w3.org/1999/xlink" width="1920" zoomAndPan="magnify" viewBox="0 0 1440 809.999993" height="1080" preserveAspectRatio="xMidYMid meet" version="1.0"><defs><clipPath id="af8b310591"><path d="M 0 557.710938 L 1440 557.710938 L 1440 809.710938 L 0 809.710938 Z M 0 557.710938 " clip-rule="nonzero"/></clipPath><clipPath id="230128b037"><path d="M 0 447.195312 L 1440 447.195312 L 1440 699.195312 L 0 699.195312 Z M 0 447.195312 " clip-rule="nonzero"/></clipPath></defs><g clip-path="url(#af8b310591)"><path fill="#a5e2ff" d="M 1459.40625 570.089844 C 1459.40625 563.226562 1453.746094 557.6875 1446.882812 557.886719 C 1335.824219 561.070312 1331.652344 606.539062 1212.546875 606.539062 C 1089.117188 606.539062 1089.117188 557.710938 965.6875 557.710938 C 842.257812 557.710938 842.257812 606.539062 718.828125 606.539062 C 595.398438 606.539062 595.398438 557.710938 471.972656 557.710938 C 348.546875 557.710938 348.546875 606.539062 225.125 606.539062 C 106.015625 606.539062 101.847656 561.070312 -9.210938 557.886719 C -16.070312 557.6875 -21.730469 563.226562 -21.730469 570.089844 L -21.730469 797.785156 C -21.730469 804.527344 -16.265625 809.992188 -9.523438 809.992188 L 1447.195312 809.992188 C 1453.9375 809.992188 1459.40625 804.527344 1459.40625 797.785156 Z M 1459.40625 570.089844 " fill-opacity="1" fill-rule="nonzero"/></g><g clip-path="url(#230128b037)"><path fill="#a5e2ff" d="M 1459.40625 459.574219 C 1459.40625 452.710938 1453.746094 447.175781 1446.882812 447.371094 C 1335.824219 450.554688 1331.652344 496.023438 1212.546875 496.023438 C 1089.117188 496.023438 1089.117188 447.195312 965.6875 447.195312 C 842.257812 447.195312 842.257812 496.023438 718.828125 496.023438 C 595.398438 496.023438 595.398438 447.195312 471.972656 447.195312 C 348.546875 447.195312 348.546875 496.023438 225.125 496.023438 C 106.015625 496.023438 101.847656 450.554688 -9.210938 447.371094 C -16.070312 447.175781 -21.730469 452.710938 -21.730469 459.574219 L -21.730469 687.269531 C -21.730469 694.011719 -16.265625 699.476562 -9.523438 699.476562 L 1447.195312 699.476562 C 1453.9375 699.476562 1459.40625 694.011719 1459.40625 687.269531 Z M 1459.40625 459.574219 " fill-opacity="1" fill-rule="nonzero"/></g></svg>