<svg xmlns="http://www.w3.org/2000/svg" xmlns:xlink="http://www.w3.org/1999/xlink" width="1920" zoomAndPan="magnify" viewBox="0 0 1440 809.999993" height="1080" preserveAspectRatio="xMidYMid meet" version="1.0"><defs><clipPath id="e8821c934a"><path d="M 0 555.382812 L 1440 555.382812 L 1440 807.382812 L 0 807.382812 Z M 0 555.382812 " clip-rule="nonzero"/></clipPath><clipPath id="2a1e0ac5fb"><path d="M 0 499.835938 L 1440 499.835938 L 1440 751.835938 L 0 751.835938 Z M 0 499.835938 " clip-rule="nonzero"/></clipPath></defs><g clip-path="url(#e8821c934a)"><path fill="#57aff6" d="M 1459.40625 567.761719 C 1459.40625 560.898438 1453.746094 555.359375 1446.882812 555.554688 C 1335.824219 558.738281 1331.652344 604.210938 1212.546875 604.210938 C 1089.117188 604.210938 1089.117188 555.382812 965.6875 555.382812 C 842.257812 555.382812 842.257812 604.210938 718.828125 604.210938 C 595.398438 604.210938 595.398438 555.382812 471.972656 555.382812 C 348.546875 555.382812 348.546875 604.210938 225.125 604.210938 C 106.015625 604.210938 101.847656 558.738281 -9.210938 555.554688 C -16.070312 555.359375 -21.730469 560.898438 -21.730469 567.761719 L -21.730469 795.457031 C -21.730469 802.195312 -16.265625 807.664062 -9.523438 807.664062 L 1447.195312 807.664062 C 1453.9375 807.664062 1459.40625 802.195312 1459.40625 795.457031 Z M 1459.40625 567.761719 " fill-opacity="1" fill-rule="nonzero"/></g><g clip-path="url(#2a1e0ac5fb)"><path fill="#57aff6" d="M 1459.40625 512.21875 C 1459.40625 505.351562 1453.746094 499.816406 1446.882812 500.011719 C 1335.824219 503.195312 1331.652344 548.667969 1212.546875 548.667969 C 1089.117188 548.667969 1089.117188 499.835938 965.6875 499.835938 C 842.257812 499.835938 842.257812 548.667969 718.828125 548.667969 C 595.398438 548.667969 595.398438 499.835938 471.972656 499.835938 C 348.546875 499.835938 348.546875 548.667969 225.125 548.667969 C 106.015625 548.667969 101.847656 503.195312 -9.210938 500.011719 C -16.070312 499.816406 -21.730469 505.351562 -21.730469 512.21875 L -21.730469 739.910156 C -21.730469 746.652344 -16.265625 752.117188 -9.523438 752.117188 L 1447.195312 752.117188 C 1453.9375 752.117188 1459.40625 746.652344 1459.40625 739.910156 Z M 1459.40625 512.21875 " fill-opacity="1" fill-rule="nonzero"/></g></svg>