<svg xmlns="http://www.w3.org/2000/svg" xmlns:xlink="http://www.w3.org/1999/xlink" width="1920" zoomAndPan="magnify" viewBox="0 0 1440 809.999993" height="1080" preserveAspectRatio="xMidYMid meet" version="1.0"><defs><clipPath id="fed2c98db4"><path d="M 0 451.035156 L 1440 451.035156 L 1440 703.035156 L 0 703.035156 Z M 0 451.035156 " clip-rule="nonzero"/></clipPath><clipPath id="9b5a3d7e49"><path d="M 0 668.25 L 1440 668.25 L 1440 810 L 0 810 Z M 0 668.25 " clip-rule="nonzero"/></clipPath></defs><g clip-path="url(#fed2c98db4)"><path fill="#e5f8ff" d="M 1459.40625 463.414062 C 1459.40625 456.550781 1453.746094 451.011719 1446.882812 451.207031 C 1335.824219 454.394531 1331.652344 499.863281 1212.546875 499.863281 C 1089.117188 499.863281 1089.117188 451.035156 965.6875 451.035156 C 842.257812 451.035156 842.257812 499.863281 718.828125 499.863281 C 595.398438 499.863281 595.398438 451.035156 471.972656 451.035156 C 348.546875 451.035156 348.546875 499.863281 225.125 499.863281 C 106.015625 499.863281 101.847656 454.394531 -9.210938 451.207031 C -16.070312 451.011719 -21.730469 456.550781 -21.730469 463.414062 L -21.730469 691.109375 C -21.730469 697.847656 -16.265625 703.316406 -9.523438 703.316406 L 1447.195312 703.316406 C 1453.9375 703.316406 1459.40625 697.847656 1459.40625 691.109375 Z M 1459.40625 463.414062 " fill-opacity="1" fill-rule="nonzero"/></g><g clip-path="url(#9b5a3d7e49)"><path fill="#e5f8ff" d="M 0 668.25 L 1495.988281 668.25 L 1495.988281 1038.269531 L 0 1038.269531 Z M 0 668.25 " fill-opacity="1" fill-rule="nonzero"/></g></svg>